<svg width="20" height="20" viewBox="0 0 20 20" fill="none" xmlns="http://www.w3.org/2000/svg">
<path d="M7.14282 5.83333V4C7.14282 3.60218 7.29333 3.22064 7.56124 2.93934C7.82914 2.65804 8.19251 2.5 8.57139 2.5H11.4285C11.8074 2.5 12.1708 2.65804 12.4387 2.93934C12.7066 3.22064 12.8571 3.60218 12.8571 4V5.83333M15.8333 5.83333L15 16C15 16.3978 14.8494 16.7794 14.5815 17.0607C14.3136 17.342 13.9503 17.5 13.5714 17.5H6.42853C6.04965 17.5 5.68629 17.342 5.41838 17.0607C5.15047 16.7794 4.99996 16.3978 4.99996 16L4.16663 5.83333H15.8333Z" stroke="#F41C00" stroke-width="2" stroke-linecap="round" stroke-linejoin="round"/>
<path d="M3.33337 5.83334H4.81486H16.6667" stroke="#F41C00" stroke-width="2" stroke-linecap="round" stroke-linejoin="round"/>
<path d="M8.33337 9.16666V13.3333" stroke="#F41C00" stroke-width="2" stroke-linecap="round" stroke-linejoin="round"/>
<path d="M11.6666 9.16666V13.3333" stroke="#F41C00" stroke-width="2" stroke-linecap="round" stroke-linejoin="round"/>
</svg>
