<svg width="20" height="20" viewBox="0 0 20 20" fill="none" xmlns="http://www.w3.org/2000/svg">
<path d="M9.16667 4.16666H3.98148C3.58857 4.16666 3.21175 4.32274 2.93392 4.60057C2.65608 4.8784 2.5 5.25522 2.5 5.64814V16.0185C2.5 16.4114 2.65608 16.7882 2.93392 17.0661C3.21175 17.3439 3.58857 17.5 3.98148 17.5H14.3519C14.7448 17.5 15.1216 17.3439 15.3994 17.0661C15.6772 16.7882 15.8333 16.4114 15.8333 16.0185V10.8333" stroke="#4D4D4D" stroke-width="2" stroke-linecap="round" stroke-linejoin="round"/>
<path d="M14.7218 2.97665C15.027 2.67146 15.441 2.5 15.8726 2.5C16.3042 2.5 16.7181 2.67146 17.0233 2.97665C17.3285 3.28185 17.5 3.69578 17.5 4.1274C17.5 4.55901 17.3285 4.97294 17.0233 5.27814L9.73527 12.5662L6.66663 13.3333L7.43379 10.2647L14.7218 2.97665Z" stroke="#4D4D4D" stroke-width="2" stroke-linecap="round" stroke-linejoin="round"/>
</svg>
