<svg width="325" height="45" viewBox="0 0 325 45" fill="none" xmlns="http://www.w3.org/2000/svg">
<g clip-path="url(#clip0_1065_3951)">
<path d="M4.89458 0H320.105C322.808 0 325 2.23858 325 5V45H0V5C0 2.23858 2.19138 0 4.89458 0Z" fill="#F2F2F2"/>
<path d="M19 29C22.3137 29 25 26.3137 25 23C25 19.6863 22.3137 17 19 17C15.6863 17 13 19.6863 13 23C13 26.3137 15.6863 29 19 29Z" fill="#FF5A52"/>
<path d="M39 29C42.3137 29 45 26.3137 45 23C45 19.6863 42.3137 17 39 17C35.6863 17 33 19.6863 33 23C33 26.3137 35.6863 29 39 29Z" fill="#E6C029"/>
<path d="M59 29C62.3137 29 65 26.3137 65 23C65 19.6863 62.3137 17 59 17C55.6863 17 53 19.6863 53 23C53 26.3137 55.6863 29 59 29Z" fill="#53C22B"/>
<path d="M93 45H78C83 45 85.5 42.098 85.5 36.2941V16.7059C85.5 10.902 88 8 93 8H303C308 8 310.5 10.902 310.5 16.7059V36.2941C310.5 42.098 313 45 318 45H93Z" fill="white"/>
<path d="M117.013 17H104.987C102.785 17 101 18.7848 101 20.9868V33.0132C101 35.2148 102.785 37 104.987 37H114.396C114.243 35.9685 114.043 34.9469 113.76 33.9441C113.759 33.9441 113.758 33.9445 113.757 33.9449C113.314 32.1315 112.339 30.607 111.047 29.2678C110.159 28.3467 109.165 27.5515 108.053 26.9086C107.946 26.8466 107.854 26.7571 107.779 26.6095C107.97 26.6458 108.16 26.6826 108.351 26.7177C109.799 26.9831 111.152 26.8247 112.325 25.8386C113.606 24.7618 113.879 22.7575 112.921 21.4264C111.866 19.9613 109.965 19.5612 108.459 20.4403C107.393 21.0621 106.765 22.0299 106.299 23.1024C105.078 25.9144 104.723 28.9172 104.448 31.9329C104.446 31.9569 104.459 31.9817 104.478 32.0643C105.459 32.1782 106.459 32.3113 107.462 32.4071C109.172 32.5702 110.884 32.6032 112.595 32.3952C112.679 32.3849 112.826 32.423 112.85 32.4786C113.032 32.9066 113.191 33.3445 113.374 33.8234C109.765 34.3862 106.295 33.8658 102.786 33.3586C103.05 30.0655 103.209 26.7832 104.316 23.6498C104.869 22.0825 105.66 20.6615 106.972 19.598C109.202 17.7905 112.196 18.1149 114.014 20.338C115.324 21.94 115.205 24.3723 113.791 25.8617C113.121 26.5675 112.31 26.9728 111.348 27.2249C112.521 28.7251 113.579 30.2513 114.199 32.0271C115.636 31.8054 117.103 30.6789 117.487 29.2455C117.855 27.8703 117.14 26.4169 116.369 25.8793C115.875 26.431 115.382 26.9745 114.9 27.5284C114.893 27.5369 114.888 27.5476 114.881 27.5575C114.885 27.5913 114.887 27.6255 114.887 27.6602C114.887 28.1635 114.479 28.5714 113.976 28.5714C113.899 28.5714 113.824 28.5607 113.752 28.5423C113.3 28.4541 113.009 28.0561 113.063 27.5956C113.067 27.5626 113.073 27.5309 113.079 27.4997C113.155 27.073 113.527 26.7485 113.976 26.7485C114.061 26.7485 114.143 26.761 114.222 26.7828C114.339 26.7485 114.453 26.6912 114.527 26.6154C115.263 25.8664 115.832 25.0104 116.083 23.9738C117.303 24.08 118.834 26.0359 119.079 27.7976C119.273 29.1984 118.873 30.4388 117.993 31.5165C117.17 32.5248 116.075 33.1168 114.834 33.4861C115.075 34.6533 115.183 35.8251 115.185 37H117.012C119.214 37 120.999 35.2152 120.999 33.0132V20.9868C120.999 18.7852 119.214 17 117.012 17H117.013ZM114.566 19.9904C114.566 19.1409 115.255 18.4518 116.105 18.4518C116.955 18.4518 117.644 19.1409 117.644 19.9904C117.644 20.84 116.955 21.5291 116.105 21.5291C115.255 21.5291 114.566 20.84 114.566 19.9904ZM118.066 24.4254C117.433 24.4254 116.919 23.9122 116.919 23.2788C116.919 22.6453 117.433 22.1321 118.066 22.1321C118.7 22.1321 119.213 22.6453 119.213 23.2788C119.213 23.9122 118.7 24.4254 118.066 24.4254Z" fill="#EE2150"/>
<path d="M142.104 32L139.864 28.108H138.646V32H137.05V22.27H140.41C141.157 22.27 141.787 22.4007 142.3 22.662C142.823 22.9233 143.21 23.2733 143.462 23.712C143.723 24.1507 143.854 24.6407 143.854 25.182C143.854 25.8167 143.667 26.3953 143.294 26.918C142.93 27.4313 142.365 27.7813 141.6 27.968L144.008 32H142.104ZM138.646 26.834H140.41C141.007 26.834 141.455 26.6847 141.754 26.386C142.062 26.0873 142.216 25.686 142.216 25.182C142.216 24.678 142.067 24.286 141.768 24.006C141.469 23.7167 141.017 23.572 140.41 23.572H138.646V26.834ZM149.242 32.126C148.514 32.126 147.856 31.9627 147.268 31.636C146.68 31.3 146.218 30.8333 145.882 30.236C145.546 29.6293 145.378 28.9293 145.378 28.136C145.378 27.352 145.55 26.6567 145.896 26.05C146.241 25.4433 146.712 24.9767 147.31 24.65C147.907 24.3233 148.574 24.16 149.312 24.16C150.049 24.16 150.716 24.3233 151.314 24.65C151.911 24.9767 152.382 25.4433 152.728 26.05C153.073 26.6567 153.246 27.352 153.246 28.136C153.246 28.92 153.068 29.6153 152.714 30.222C152.359 30.8287 151.874 31.3 151.258 31.636C150.651 31.9627 149.979 32.126 149.242 32.126ZM149.242 30.74C149.652 30.74 150.035 30.642 150.39 30.446C150.754 30.25 151.048 29.956 151.272 29.564C151.496 29.172 151.608 28.696 151.608 28.136C151.608 27.576 151.5 27.1047 151.286 26.722C151.071 26.33 150.786 26.036 150.432 25.84C150.077 25.644 149.694 25.546 149.284 25.546C148.873 25.546 148.49 25.644 148.136 25.84C147.79 26.036 147.515 26.33 147.31 26.722C147.104 27.1047 147.002 27.576 147.002 28.136C147.002 28.9667 147.212 29.6107 147.632 30.068C148.061 30.516 148.598 30.74 149.242 30.74ZM161.767 24.286L157.035 35.626H155.383L156.951 31.874L153.913 24.286H155.691L157.861 30.166L160.115 24.286H161.767ZM162.44 28.108C162.44 27.3333 162.599 26.6473 162.916 26.05C163.243 25.4527 163.681 24.9907 164.232 24.664C164.792 24.328 165.408 24.16 166.08 24.16C166.687 24.16 167.214 24.2813 167.662 24.524C168.119 24.7573 168.483 25.0513 168.754 25.406V24.286H170.364V32H168.754V30.852C168.483 31.216 168.115 31.5193 167.648 31.762C167.181 32.0047 166.649 32.126 166.052 32.126C165.389 32.126 164.783 31.958 164.232 31.622C163.681 31.2767 163.243 30.8007 162.916 30.194C162.599 29.578 162.44 28.8827 162.44 28.108ZM168.754 28.136C168.754 27.604 168.642 27.142 168.418 26.75C168.203 26.358 167.919 26.0593 167.564 25.854C167.209 25.6487 166.827 25.546 166.416 25.546C166.005 25.546 165.623 25.6487 165.268 25.854C164.913 26.05 164.624 26.344 164.4 26.736C164.185 27.1187 164.078 27.576 164.078 28.108C164.078 28.64 164.185 29.1067 164.4 29.508C164.624 29.9093 164.913 30.2173 165.268 30.432C165.632 30.6373 166.015 30.74 166.416 30.74C166.827 30.74 167.209 30.6373 167.564 30.432C167.919 30.2267 168.203 29.928 168.418 29.536C168.642 29.1347 168.754 28.668 168.754 28.136ZM174.056 21.64V32H172.46V21.64H174.056ZM190.036 22.27V32H188.44V25.336L185.472 32H184.366L181.384 25.336V32H179.788V22.27H181.51L184.926 29.9L188.328 22.27H190.036ZM191.602 28.108C191.602 27.3333 191.761 26.6473 192.078 26.05C192.405 25.4527 192.843 24.9907 193.394 24.664C193.954 24.328 194.57 24.16 195.242 24.16C195.849 24.16 196.376 24.2813 196.824 24.524C197.281 24.7573 197.645 25.0513 197.916 25.406V24.286H199.526V32H197.916V30.852C197.645 31.216 197.277 31.5193 196.81 31.762C196.343 32.0047 195.811 32.126 195.214 32.126C194.551 32.126 193.945 31.958 193.394 31.622C192.843 31.2767 192.405 30.8007 192.078 30.194C191.761 29.578 191.602 28.8827 191.602 28.108ZM197.916 28.136C197.916 27.604 197.804 27.142 197.58 26.75C197.365 26.358 197.081 26.0593 196.726 25.854C196.371 25.6487 195.989 25.546 195.578 25.546C195.167 25.546 194.785 25.6487 194.43 25.854C194.075 26.05 193.786 26.344 193.562 26.736C193.347 27.1187 193.24 27.576 193.24 28.108C193.24 28.64 193.347 29.1067 193.562 29.508C193.786 29.9093 194.075 30.2173 194.43 30.432C194.794 30.6373 195.177 30.74 195.578 30.74C195.989 30.74 196.371 30.6373 196.726 30.432C197.081 30.2267 197.365 29.928 197.58 29.536C197.804 29.1347 197.916 28.668 197.916 28.136ZM203.484 25.588V29.858C203.484 30.1473 203.55 30.3573 203.68 30.488C203.82 30.6093 204.054 30.67 204.38 30.67H205.36V32H204.1C203.382 32 202.831 31.832 202.448 31.496C202.066 31.16 201.874 30.614 201.874 29.858V25.588H200.964V24.286H201.874V22.368H203.484V24.286H205.36V25.588H203.484ZM208.427 25.406C208.661 25.014 208.969 24.7107 209.351 24.496C209.743 24.272 210.205 24.16 210.737 24.16V25.812H210.331C209.706 25.812 209.23 25.9707 208.903 26.288C208.586 26.6053 208.427 27.156 208.427 27.94V32H206.831V24.286H208.427V25.406ZM213.016 23.264C212.727 23.264 212.484 23.166 212.288 22.97C212.092 22.774 211.994 22.5313 211.994 22.242C211.994 21.9527 212.092 21.71 212.288 21.514C212.484 21.318 212.727 21.22 213.016 21.22C213.296 21.22 213.534 21.318 213.73 21.514C213.926 21.71 214.024 21.9527 214.024 22.242C214.024 22.5313 213.926 22.774 213.73 22.97C213.534 23.166 213.296 23.264 213.016 23.264ZM213.8 24.286V32H212.204V24.286H213.8ZM225.234 24.16C225.84 24.16 226.382 24.286 226.858 24.538C227.343 24.79 227.721 25.1633 227.992 25.658C228.272 26.1527 228.412 26.75 228.412 27.45V32H226.83V27.688C226.83 26.9973 226.657 26.47 226.312 26.106C225.966 25.7327 225.495 25.546 224.898 25.546C224.3 25.546 223.824 25.7327 223.47 26.106C223.124 26.47 222.952 26.9973 222.952 27.688V32H221.37V27.688C221.37 26.9973 221.197 26.47 220.852 26.106C220.506 25.7327 220.035 25.546 219.438 25.546C218.84 25.546 218.364 25.7327 218.01 26.106C217.664 26.47 217.492 26.9973 217.492 27.688V32H215.896V24.286H217.492V25.168C217.753 24.8507 218.084 24.6033 218.486 24.426C218.887 24.2487 219.316 24.16 219.774 24.16C220.39 24.16 220.94 24.2907 221.426 24.552C221.911 24.8133 222.284 25.1913 222.546 25.686C222.779 25.2193 223.143 24.8507 223.638 24.58C224.132 24.3 224.664 24.16 225.234 24.16ZM233.789 32.126C233.061 32.126 232.403 31.9627 231.815 31.636C231.227 31.3 230.765 30.8333 230.429 30.236C230.093 29.6293 229.925 28.9293 229.925 28.136C229.925 27.352 230.097 26.6567 230.443 26.05C230.788 25.4433 231.259 24.9767 231.857 24.65C232.454 24.3233 233.121 24.16 233.859 24.16C234.596 24.16 235.263 24.3233 235.861 24.65C236.458 24.9767 236.929 25.4433 237.275 26.05C237.62 26.6567 237.793 27.352 237.793 28.136C237.793 28.92 237.615 29.6153 237.261 30.222C236.906 30.8287 236.421 31.3 235.805 31.636C235.198 31.9627 234.526 32.126 233.789 32.126ZM233.789 30.74C234.199 30.74 234.582 30.642 234.937 30.446C235.301 30.25 235.595 29.956 235.819 29.564C236.043 29.172 236.155 28.696 236.155 28.136C236.155 27.576 236.047 27.1047 235.833 26.722C235.618 26.33 235.333 26.036 234.979 25.84C234.624 25.644 234.241 25.546 233.831 25.546C233.42 25.546 233.037 25.644 232.683 25.84C232.337 26.036 232.062 26.33 231.857 26.722C231.651 27.1047 231.549 27.576 231.549 28.136C231.549 28.9667 231.759 29.6107 232.179 30.068C232.608 30.516 233.145 30.74 233.789 30.74ZM243.262 24.16C243.869 24.16 244.41 24.286 244.886 24.538C245.372 24.79 245.75 25.1633 246.02 25.658C246.291 26.1527 246.426 26.75 246.426 27.45V32H244.844V27.688C244.844 26.9973 244.672 26.47 244.326 26.106C243.981 25.7327 243.51 25.546 242.912 25.546C242.315 25.546 241.839 25.7327 241.484 26.106C241.139 26.47 240.966 26.9973 240.966 27.688V32H239.37V24.286H240.966V25.168C241.228 24.8507 241.559 24.6033 241.96 24.426C242.371 24.2487 242.805 24.16 243.262 24.16ZM255.406 24.286L250.674 35.626H249.022L250.59 31.874L247.552 24.286H249.33L251.5 30.166L253.754 24.286H255.406Z" fill="#121314"/>
</g>
<defs>
<clipPath id="clip0_1065_3951">
<rect width="325" height="45" fill="white"/>
</clipPath>
</defs>
</svg>
