<svg  width="24" height="23" viewBox="0 0 24 24" fill="white" xmlns="http://www.w3.org/2000/svg">
<g clip-path="url(#clip0_2292_4033)">
<path d="M13.6666 6.41668C13.6666 6.96896 14.1143 7.41668 14.6666 7.41668C15.2189 7.41668 15.6666 6.96896 15.6666 6.41668H13.6666ZM15.6666 15.5833C15.6666 15.0311 15.2189 14.5833 14.6666 14.5833C14.1143 14.5833 13.6666 15.0311 13.6666 15.5833H15.6666ZM11.7333 18.25C11.181 18.25 10.7333 18.6977 10.7333 19.25C10.7333 19.8023 11.181 20.25 11.7333 20.25V18.25ZM13.6656 19.0391L14.1393 19.9198L14.1393 19.9198L13.6656 19.0391ZM14.4668 18.1934L13.5662 17.7587L13.5662 17.7587L14.4668 18.1934ZM4.66764 2.04427L5.14131 2.92497L5.14131 2.92497L4.66764 2.04427ZM2.66663 4.92964C2.66663 5.48192 3.11434 5.92964 3.66663 5.92964C4.21891 5.92964 4.66663 5.48192 4.66663 4.92964H2.66663ZM3.86645 2.88997L4.76702 3.32469L4.76702 3.32469L3.86645 2.88997ZM14.4668 2.88997L13.5662 3.32469L13.5662 3.32469L14.4668 2.88997ZM13.6656 2.04427L14.1393 1.16356L14.1393 1.16356L13.6656 2.04427ZM6.17032 2.81694L5.80467 3.74769L6.17032 2.81694ZM9.83699 4.25741L10.2026 3.32666L10.2026 3.32666L9.83699 4.25741ZM8.49626 21.0164L8.86192 20.0857L8.86192 20.0857L8.49626 21.0164ZM4.8296 19.5759L4.46394 20.5067L4.46394 20.5067L4.8296 19.5759ZM19.25 12C19.8022 12 20.25 11.5523 20.25 11C20.25 10.4477 19.8022 10 19.25 10V12ZM11 10C10.4477 10 9.99996 10.4477 9.99996 11C9.99996 11.5523 10.4477 12 11 12V10ZM16.7095 13.0429C16.319 13.4334 16.319 14.0666 16.7095 14.4571C17.1 14.8476 17.7332 14.8476 18.1237 14.4571L16.7095 13.0429ZM19.1295 12.0371L19.8366 12.7442L19.8366 12.7442L19.1295 12.0371ZM19.1295 9.96292L19.8366 9.25582L19.8366 9.25581L19.1295 9.96292ZM18.1237 7.5429C17.7332 7.15238 17.1 7.15238 16.7095 7.5429C16.319 7.93343 16.319 8.56659 16.7095 8.95712L18.1237 7.5429ZM19.7421 11.2833L18.791 10.9743L18.791 10.9743L19.7421 11.2833ZM19.7421 10.7167L18.791 11.0258L18.791 11.0258L19.7421 10.7167ZM15.6666 6.41668V4.92964H13.6666V6.41668H15.6666ZM11.7333 0.833344H6.59996V2.83334H11.7333V0.833344ZM15.6666 16.1537V15.5833H13.6666V16.1537H15.6666ZM11.7333 20.25C12.2293 20.25 12.6647 20.2509 13.0233 20.2199C13.3953 20.1879 13.7741 20.1162 14.1393 19.9198L13.1919 18.1584C13.165 18.1729 13.0909 18.2067 12.8515 18.2273C12.5987 18.2491 12.2641 18.25 11.7333 18.25V20.25ZM13.6666 16.1537C13.6666 16.7113 13.6659 17.0724 13.6446 17.3476C13.6241 17.6125 13.5891 17.7113 13.5662 17.7587L15.3674 18.6281C15.5443 18.2615 15.6092 17.8823 15.6387 17.5019C15.6673 17.1317 15.6666 16.68 15.6666 16.1537H13.6666ZM14.1393 19.9198C14.6763 19.6309 15.1031 19.1756 15.3674 18.6281L13.5662 17.7587C13.479 17.9394 13.3448 18.0762 13.1919 18.1584L14.1393 19.9198ZM6.59996 0.833344C6.10399 0.833344 5.66854 0.832478 5.30991 0.863407C4.9379 0.895489 4.55917 0.967148 4.19397 1.16356L5.14131 2.92497C5.16829 2.91046 5.24233 2.87666 5.48175 2.85601C5.73454 2.83421 6.06917 2.83334 6.59996 2.83334V0.833344ZM4.66663 4.92964C4.66663 4.3721 4.66732 4.01093 4.68862 3.73579C4.70913 3.47082 4.74414 3.37208 4.76702 3.32469L2.96588 2.45526C2.78894 2.82182 2.72403 3.20101 2.69459 3.58144C2.66593 3.95169 2.66663 4.40338 2.66663 4.92964H4.66663ZM4.19397 1.16356C3.65692 1.45241 3.23018 1.90772 2.96588 2.45526L4.76702 3.32469C4.85425 3.14397 4.98844 3.00719 5.14131 2.92497L4.19397 1.16356ZM15.6666 4.92964C15.6666 4.40338 15.6673 3.95169 15.6387 3.58144C15.6092 3.20101 15.5443 2.82182 15.3674 2.45526L13.5662 3.32469C13.5891 3.37208 13.6241 3.47082 13.6446 3.73579C13.6659 4.01093 13.6666 4.3721 13.6666 4.92964H15.6666ZM11.7333 2.83334C12.2641 2.83334 12.5987 2.83421 12.8515 2.85601C13.0909 2.87666 13.165 2.91046 13.1919 2.92497L14.1393 1.16356C13.7741 0.967148 13.3953 0.895489 13.0233 0.863407C12.6647 0.832478 12.2293 0.833344 11.7333 0.833344V2.83334ZM15.3674 2.45526C15.1031 1.90772 14.6763 1.45241 14.1393 1.16356L13.1919 2.92497C13.3448 3.00719 13.479 3.14397 13.5662 3.32469L15.3674 2.45526ZM5.80467 3.74769L9.47134 5.18817L10.2026 3.32666L6.53597 1.88619L5.80467 3.74769ZM9.99996 5.96379V19.31H12V5.96379H9.99996ZM8.86192 20.0857L5.19525 18.6452L4.46394 20.5067L8.13061 21.9472L8.86192 20.0857ZM4.66663 17.8696V4.52332H2.66663V17.8696H4.66663ZM5.19525 18.6452C4.87634 18.5199 4.66663 18.2122 4.66663 17.8696H2.66663C2.66663 19.0345 3.37967 20.0807 4.46394 20.5067L5.19525 18.6452ZM9.99996 19.31C9.99996 19.8974 9.4086 20.3004 8.86192 20.0857L8.13061 21.9472C9.98934 22.6774 12 21.307 12 19.31H9.99996ZM9.47134 5.18817C9.79024 5.31345 9.99996 5.62116 9.99996 5.96379H12C12 4.79885 11.2869 3.75263 10.2026 3.32666L9.47134 5.18817ZM6.53597 1.88619C4.67724 1.15597 2.66663 2.52631 2.66663 4.52332H4.66663C4.66663 3.93596 5.25799 3.53292 5.80467 3.74769L6.53597 1.88619ZM19.25 10H11V12H19.25V10ZM18.1237 14.4571L19.8366 12.7442L18.4224 11.33L16.7095 13.0429L18.1237 14.4571ZM19.8366 9.25581L18.1237 7.5429L16.7095 8.95712L18.4224 10.67L19.8366 9.25581ZM19.8366 12.7442C20.0065 12.5744 20.1769 12.405 20.3088 12.2497C20.4482 12.0855 20.6021 11.8725 20.6931 11.5923L18.791 10.9743C18.814 10.9034 18.8432 10.8858 18.7841 10.9554C18.7174 11.0339 18.6156 11.1368 18.4224 11.33L19.8366 12.7442ZM18.4224 10.67C18.6156 10.8632 18.7174 10.9661 18.7841 11.0447C18.8432 11.1143 18.814 11.0967 18.791 11.0258L20.6931 10.4077C20.6021 10.1275 20.4482 9.91451 20.3088 9.7503C20.1769 9.59501 20.0065 9.42565 19.8366 9.25582L18.4224 10.67ZM20.6931 11.5923C20.8182 11.2074 20.8182 10.7927 20.6931 10.4077L18.791 11.0258C18.7856 11.009 18.7856 10.991 18.791 10.9743L20.6931 11.5923Z" 
fill="#fff"/>
</g>
<defs>
<clipPath id="clip0_2292_4033">
<rect width="22" height="22" fill="white"/>
</clipPath>
</defs>
</svg>
