<svg width="24" height="24" viewBox="0 0 24 24" fill="none" xmlns="http://www.w3.org/2000/svg">
<path fill-rule="evenodd" clip-rule="evenodd" d="M7.41667 10.6176C9.31515 10.6176 10.8542 9.13624 10.8542 7.30882C10.8542 5.48141 9.31515 4 7.41667 4C5.51819 4 3.97917 5.48141 3.97917 7.30882C3.97917 9.13624 5.51819 10.6176 7.41667 10.6176ZM7.41667 8.41176C8.0495 8.41176 8.5625 7.91796 8.5625 7.30882C8.5625 6.69968 8.0495 6.20588 7.41667 6.20588C6.78385 6.20588 6.27083 6.69968 6.27083 7.30882C6.27083 7.91796 6.78385 8.41176 7.41667 8.41176Z" fill="white"/>
<path fill-rule="evenodd" clip-rule="evenodd" d="M20.0208 7.30882C20.0208 9.13624 18.4818 10.6176 16.5833 10.6176C14.6848 10.6176 13.1458 9.13624 13.1458 7.30882C13.1458 5.48141 14.6848 4 16.5833 4C18.4818 4 20.0208 5.48141 20.0208 7.30882ZM17.7292 7.30882C17.7292 7.91796 17.2162 8.41176 16.5833 8.41176C15.9505 8.41176 15.4375 7.91796 15.4375 7.30882C15.4375 6.69968 15.9505 6.20588 16.5833 6.20588C17.2162 6.20588 17.7292 6.69968 17.7292 7.30882Z" fill="white"/>
<path d="M16.5833 14.1471C18.2029 14.1471 19.6637 14.7914 20.7083 15.8346V16.7941H16.125V17.2353C16.125 17.8692 15.9706 18.4684 15.6962 19H21.1667C22.1792 19 23 18.2099 23 17.2353V15.6178C23 15.2354 22.8762 14.8589 22.6142 14.5716C21.1441 12.9591 18.9872 11.9412 16.5833 11.9412C15.7863 11.9412 15.0165 12.0531 14.2898 12.2615C14.601 12.5293 14.8949 12.8149 15.17 13.1166C15.4737 13.4497 15.6955 13.8157 15.8485 14.1918C16.0888 14.1622 16.334 14.1471 16.5833 14.1471Z" fill="white"/>
<path fill-rule="evenodd" clip-rule="evenodd" d="M12 19C12.3339 19 12.647 18.9141 12.9167 18.7639C13.4647 18.4588 13.8333 17.8885 13.8333 17.2353V15.6178C13.8333 15.2354 13.7095 14.8589 13.4475 14.5716C13.0719 14.1596 12.6515 13.7864 12.1935 13.4591C10.8592 12.5054 9.20637 11.9412 7.41667 11.9412C5.01278 11.9412 2.85589 12.9591 1.38583 14.5716C1.12384 14.8589 1 15.2354 1 15.6178V17.2353C1 18.2099 1.82081 19 2.83333 19H12ZM11.5417 15.8346C10.497 14.7914 9.03625 14.1471 7.41667 14.1471C5.79708 14.1471 4.33633 14.7914 3.29167 15.8346V16.7941H11.5417V15.8346Z" fill="white"/>
</svg>
