<svg width="24" height="24" viewBox="0 0 24 24" fill="none" xmlns="http://www.w3.org/2000/svg">
<path d="M22.2294 15.4741C21.9011 15.0899 21.4551 14.8359 20.9717 14.7553C20.4699 14.6748 19.9185 14.7553 19.2927 15.0154L15.0486 16.682C15.0486 16.4961 15.0115 16.2978 14.9495 16.0935C14.7698 15.5359 14.361 15.0774 13.8096 14.8295C13.7538 14.8049 11.8146 14.0118 11.8146 14.0118L8.53106 12.6487C8.30184 12.5496 8.05395 12.5 7.7876 12.5C6.80866 12.5 5.86068 12.8904 5.17303 13.5781C5.01184 13.7393 4.8571 13.9251 4.73304 14.111L2.29208 15.635C2.08153 15.7713 1.96992 16.0192 2.00705 16.2669L2.74431 20.5481C2.77522 20.7152 2.86815 20.864 3.01066 20.9569C3.15317 21.0498 3.32659 21.0808 3.494 21.0436L5.24105 20.6285C6.94476 20.2259 8.85924 21.0065 10.5876 21.719L11.8329 22.2333C12.2293 22.4005 12.6384 22.4812 13.0473 22.4812C13.6854 22.4812 14.3174 22.2829 14.9121 21.8989L21.6655 18.4666C21.9381 18.3303 22.2851 18.1135 22.5143 17.686C22.8861 16.9983 22.7684 16.1061 22.2293 15.4743L22.2294 15.4741ZM21.4239 17.0973C21.3744 17.184 21.3063 17.2584 21.108 17.3574L14.3053 20.8146C13.6114 21.2606 12.9609 21.3475 12.3103 21.081L11.028 20.5481C9.54723 19.9409 7.90533 19.2717 6.245 19.2717C5.81747 19.2717 5.38991 19.315 4.95636 19.4204L3.85358 19.6806L3.29598 16.4588L5.50169 15.0772C5.58218 15.0276 5.65043 14.9596 5.70001 14.8789C5.79294 14.7302 5.91056 14.5814 6.04706 14.4451C6.49928 13.9929 7.13757 13.7326 7.78189 13.7326C7.88105 13.7326 7.96776 13.7512 8.04202 13.7822L11.3318 15.1515L13.3143 15.9632C13.5249 16.0623 13.6861 16.242 13.7603 16.4712C13.7912 16.5766 13.8099 16.6633 13.7975 16.7313C13.785 16.8367 13.7728 16.9668 13.7417 17.041C13.6983 17.1464 13.6363 17.2331 13.562 17.3136L13.5433 17.3323C13.3203 17.5428 12.967 17.6111 12.6698 17.4872L9.8756 16.3287C9.55967 16.1986 9.19416 16.3474 9.06389 16.6633C8.93383 16.9792 9.08256 17.3447 9.39849 17.475L12.1927 18.6336C12.9053 18.931 13.7539 18.7823 14.3115 18.3052L19.7388 16.1739C20.1539 16.0067 20.4885 15.9447 20.7549 15.988C20.947 16.019 21.1328 16.1306 21.2691 16.2915C21.4737 16.5332 21.5292 16.8738 21.4054 17.1092L21.4239 17.0973Z" fill="white" stroke="white" stroke-width="0.5"/>
<path d="M14.7902 11C14.7902 11.8284 14.1186 12.5 13.2902 12.5C12.4617 12.5 11.7902 11.8284 11.7902 11C11.7902 10.1716 12.4617 9.5 13.2902 9.5C14.1186 9.5 14.7902 10.1716 14.7902 11Z" fill="white"/>
<path d="M11.8759 3.41421C12.2656 3.02459 12.776 2.82933 13.2866 2.82843C13.7997 2.82753 14.313 3.02279 14.7044 3.41421C15.0949 3.80474 15.2902 4.31658 15.2902 4.82843C15.2902 5.34027 15.0949 5.85212 14.7044 6.24264C14.313 6.63406 13.7997 6.82932 13.2866 6.82842L13.2902 7.82843" stroke="white" stroke-width="2" stroke-linecap="round" stroke-linejoin="round"/>
</svg>
