<svg width="24" height="24" viewBox="0 0 24 24" fill="none" xmlns="http://www.w3.org/2000/svg">
<path fill-rule="evenodd" clip-rule="evenodd" d="M2.95712 9.20765C3.37049 7.86787 4.08042 6.61733 5.0581 5.56356L6.89676 6.62511C8.2301 7.39491 9.89677 6.43266 9.89677 4.89306L9.89677 2.76995C11.2982 2.45014 12.7362 2.46059 14.1031 2.77249V4.89309C14.1031 6.43269 15.7698 7.39494 17.1031 6.62514L18.9414 5.5638C19.4125 6.07284 19.8347 6.64193 20.1961 7.26793C20.5575 7.89392 20.8393 8.54403 21.0446 9.20653L19.2062 10.2679C17.8729 11.0377 17.8729 12.9622 19.2062 13.732L21.0428 14.7923C20.6294 16.1321 19.9195 17.3826 18.9418 18.4364L17.1031 17.3749C15.7698 16.6051 14.1031 17.5673 14.1031 19.1069L14.1031 21.23C12.7017 21.5498 11.2637 21.5394 9.89676 21.2275V19.1068C9.89676 17.5672 8.2301 16.605 6.89676 17.3748L5.05845 18.4361C4.58734 17.9271 4.16522 17.358 3.8038 16.732C3.44238 16.106 3.1606 15.4559 2.95532 14.7934L4.7936 13.732C6.12694 12.9622 6.12694 11.0377 4.7936 10.2679L2.95712 9.20765ZM12 16C14.2091 16 16 14.2091 16 12C16 9.79083 14.2091 7.99997 12 7.99997C9.79083 7.99997 7.99997 9.79083 7.99997 12C7.99997 14.2091 9.79083 16 12 16Z" fill="white"/>
<path d="M5.0581 5.56356L5.5581 4.69754C5.15404 4.46425 4.64236 4.54139 4.32502 4.88342L5.0581 5.56356ZM2.95712 9.20765L2.00157 8.91283C1.86401 9.35867 2.05305 9.84039 2.45712 10.0737L2.95712 9.20765ZM6.89676 6.62511L6.39676 7.49114H6.39677L6.89676 6.62511ZM9.89677 4.89306L8.89677 4.89306V4.89306H9.89677ZM9.89677 2.76995L9.67428 1.79502C9.21941 1.89882 8.89677 2.30339 8.89677 2.76995L9.89677 2.76995ZM14.1031 2.77249H15.1031C15.1031 2.30591 14.7805 1.90134 14.3256 1.79754L14.1031 2.77249ZM17.1031 6.62514L16.6031 5.75911L17.1031 6.62514ZM18.9414 5.5638L19.6753 4.88455C19.3581 4.5418 18.8459 4.46426 18.4414 4.69777L18.9414 5.5638ZM20.1961 7.26793L19.3301 7.76793L20.1961 7.26793ZM21.0446 9.20653L21.5446 10.0726C21.949 9.83905 22.138 9.35667 21.9998 8.91057L21.0446 9.20653ZM19.2062 10.2679L19.7062 11.1339L19.2062 10.2679ZM19.2062 13.732L18.7062 14.598L19.2062 13.732ZM21.0428 14.7923L21.9983 15.0872C22.1359 14.6413 21.9469 14.1596 21.5428 13.9263L21.0428 14.7923ZM18.9418 18.4364L18.4418 19.3024C18.8459 19.5357 19.3576 19.4586 19.6749 19.1166L18.9418 18.4364ZM17.1031 17.3749L17.6031 16.5088V16.5088L17.1031 17.3749ZM14.1031 19.1069H15.1031H14.1031ZM14.1031 21.23L14.3256 22.205C14.7805 22.1012 15.1031 21.6966 15.1031 21.23H14.1031ZM9.89676 21.2275H8.89676C8.89676 21.6941 9.21942 22.0986 9.67431 22.2024L9.89676 21.2275ZM6.89676 17.3748L6.39676 16.5087V16.5088L6.89676 17.3748ZM5.05845 18.4361L4.32453 19.1154C4.64176 19.4581 5.15399 19.5357 5.55845 19.3022L5.05845 18.4361ZM3.8038 16.732L4.66983 16.232H4.66983L3.8038 16.732ZM2.95532 14.7934L2.45532 13.9274C2.05087 14.1609 1.8619 14.6432 2.00012 15.0893L2.95532 14.7934ZM4.7936 13.732L4.2936 12.866L4.2936 12.866L4.7936 13.732ZM4.7936 10.2679L5.2936 9.40192H5.2936L4.7936 10.2679ZM4.32502 4.88342C3.24304 6.0496 2.45828 7.43257 2.00157 8.91283L3.91267 9.50247C4.2827 8.30317 4.9178 7.18506 5.79118 6.24371L4.32502 4.88342ZM7.39677 5.75909L5.5581 4.69754L4.5581 6.42959L6.39676 7.49114L7.39677 5.75909ZM8.89677 4.89306C8.89677 5.66286 8.06343 6.14399 7.39676 5.75909L6.39677 7.49114C8.39677 8.64584 10.8968 7.20247 10.8968 4.89306H8.89677ZM8.89677 2.76995L8.89677 4.89306L10.8968 4.89306L10.8968 2.76995L8.89677 2.76995ZM14.3256 1.79754C12.8153 1.45294 11.2252 1.44108 9.67428 1.79502L10.1193 3.74489C11.3712 3.45919 12.657 3.46823 13.8807 3.74743L14.3256 1.79754ZM15.1031 4.89309V2.77249H13.1031V4.89309H15.1031ZM16.6031 5.75911C15.9365 6.14401 15.1031 5.66289 15.1031 4.89309H13.1031C13.1031 7.20249 15.6031 8.64586 17.6031 7.49116L16.6031 5.75911ZM18.4414 4.69777L16.6031 5.75911L17.6031 7.49116L19.4414 6.42982L18.4414 4.69777ZM21.0621 6.76794C20.6632 6.07701 20.1967 5.44786 19.6753 4.88455L18.2075 6.24304C18.6284 6.69781 19.0061 7.20685 19.3301 7.76793L21.0621 6.76794ZM21.9998 8.91057C21.7726 8.17743 21.461 7.45884 21.0621 6.76794L19.3301 7.76793C19.654 8.329 19.906 8.91063 20.0894 9.5025L21.9998 8.91057ZM19.7062 11.1339L21.5446 10.0726L20.5446 8.34051L18.7062 9.40187L19.7062 11.1339ZM19.7062 12.866C19.0396 12.4811 19.0396 11.5188 19.7062 11.1339L18.7062 9.40187C16.7062 10.5566 16.7062 13.4433 18.7062 14.598L19.7062 12.866ZM21.5428 13.9263L19.7062 12.866L18.7062 14.598L20.5428 15.6584L21.5428 13.9263ZM19.6749 19.1166C20.7569 17.9504 21.5416 16.5674 21.9983 15.0872L20.0872 14.4975C19.7172 15.6968 19.0821 16.8149 18.2087 17.7563L19.6749 19.1166ZM16.6031 18.2409L18.4418 19.3024L19.4418 17.5704L17.6031 16.5088L16.6031 18.2409ZM15.1031 19.1069C15.1031 18.3371 15.9365 17.856 16.6031 18.2409L17.6031 16.5088C15.6031 15.3541 13.1031 16.7975 13.1031 19.1069H15.1031ZM15.1031 21.23L15.1031 19.1069H13.1031L13.1031 21.23H15.1031ZM9.67431 22.2024C11.1846 22.547 12.7747 22.5589 14.3256 22.205L13.8806 20.2551C12.6287 20.5408 11.3429 20.5317 10.1192 20.2525L9.67431 22.2024ZM8.89676 19.1068V21.2275H10.8968V19.1068H8.89676ZM7.39676 18.2408C8.06343 17.8559 8.89676 18.337 8.89676 19.1068H10.8968C10.8968 16.7974 8.39676 15.3541 6.39676 16.5087L7.39676 18.2408ZM5.55845 19.3022L7.39677 18.2408L6.39676 16.5088L4.55845 17.5701L5.55845 19.3022ZM2.93778 17.232C3.33667 17.9229 3.8032 18.5521 4.32453 19.1154L5.79236 17.7569C5.37148 17.3021 4.99376 16.7931 4.66983 16.232L2.93778 17.232ZM2.00012 15.0893C2.22729 15.8225 2.53887 16.5411 2.93778 17.232L4.66983 16.232C4.34589 15.671 4.09391 15.0893 3.91052 14.4974L2.00012 15.0893ZM4.2936 12.866L2.45532 13.9274L3.45532 15.6594L5.2936 14.5981L4.2936 12.866ZM4.2936 11.134C4.96027 11.5189 4.96027 12.4811 4.2936 12.866L5.2936 14.5981C7.29361 13.4434 7.2936 10.5566 5.2936 9.40192L4.2936 11.134ZM2.45712 10.0737L4.2936 11.134L5.2936 9.40192L3.45712 8.34163L2.45712 10.0737ZM15 12C15 13.6568 13.6568 15 12 15V17C14.7614 17 17 14.7614 17 12H15ZM12 8.99997C13.6568 8.99997 15 10.3431 15 12H17C17 9.23855 14.7614 6.99997 12 6.99997V8.99997ZM8.99997 12C8.99997 10.3431 10.3431 8.99997 12 8.99997V6.99997C9.23855 6.99997 6.99997 9.23855 6.99997 12H8.99997ZM12 15C10.3431 15 8.99997 13.6568 8.99997 12H6.99997C6.99997 14.7614 9.23855 17 12 17V15Z" fill="white"/>
</svg>
