<svg width="24" height="24" viewBox="0 0 24 24" fill="none" xmlns="http://www.w3.org/2000/svg">
<circle cx="12" cy="12" r="3" stroke="white" stroke-width="2"/>
<path d="M5.0581 5.56356C4.08042 6.61733 3.37049 7.86787 2.95712 9.20765L4.7936 10.2679C6.12694 11.0377 6.12694 12.9622 4.7936 13.732L2.95532 14.7934C3.1606 15.4559 3.44238 16.106 3.8038 16.732C4.16522 17.358 4.58734 17.9271 5.05845 18.4361L6.89676 17.3748C8.2301 16.605 9.89676 17.5672 9.89676 19.1068V21.2275C11.2637 21.5394 12.7017 21.5498 14.1031 21.23L14.1031 19.1069C14.1031 17.5673 15.7698 16.6051 17.1031 17.3749L18.9418 18.4364C19.9195 17.3826 20.6294 16.1321 21.0428 14.7923L19.2062 13.732C17.8729 12.9622 17.8729 11.0377 19.2062 10.2679L21.0446 9.20653C20.8393 8.54403 20.5575 7.89392 20.1961 7.26793C19.8347 6.64193 19.4126 6.07284 18.9414 5.5638L17.1031 6.62514C15.7698 7.39494 14.1031 6.43269 14.1031 4.89309V2.77249C12.7362 2.46059 11.2982 2.45014 9.89677 2.76995L9.89677 4.89306C9.89677 6.43266 8.2301 7.39491 6.89676 6.62511L5.0581 5.56356Z" stroke="white" stroke-width="2" stroke-linejoin="round"/>
</svg>
