<svg width="24" height="24" viewBox="0 0 24 24" fill="none" xmlns="http://www.w3.org/2000/svg">
<path d="M10.8542 7.30882C10.8542 9.13624 9.31515 10.6176 7.41667 10.6176C5.51819 10.6176 3.97917 9.13624 3.97917 7.30882C3.97917 5.48141 5.51819 4 7.41667 4C9.31515 4 10.8542 5.48141 10.8542 7.30882Z" fill="white"/>
<path d="M16.5833 10.6176C18.4818 10.6176 20.0208 9.13624 20.0208 7.30882C20.0208 5.48141 18.4818 4 16.5833 4C14.6848 4 13.1458 5.48141 13.1458 7.30882C13.1458 9.13624 14.6848 10.6176 16.5833 10.6176Z" fill="white"/>
<path d="M15.6962 19C15.9706 18.4684 16.125 17.8692 16.125 17.2353V15.6178C16.125 14.7914 15.857 13.8702 15.17 13.1166C14.8949 12.8149 14.601 12.5293 14.2898 12.2615C15.0165 12.0531 15.7863 11.9412 16.5833 11.9412C18.9872 11.9412 21.1441 12.9591 22.6142 14.5716C22.8762 14.8589 23 15.2354 23 15.6178V17.2353C23 18.2099 22.1792 19 21.1667 19H15.6962Z" fill="white"/>
<path d="M13.7961 17.591C13.6252 18.3951 12.886 19 12 19H2.83333C1.82081 19 1 18.2099 1 17.2353V15.6178C1 15.2354 1.12384 14.8589 1.38583 14.5716C2.85589 12.9591 5.01278 11.9412 7.41667 11.9412C9.12081 11.9412 10.7008 12.4528 12 13.3251C12.5335 13.6832 13.0196 14.1022 13.4475 14.5716C13.7095 14.8589 13.8333 15.2354 13.8333 15.6178V17.2353C13.8333 17.3571 13.8205 17.4761 13.7961 17.591Z" fill="white"/>
</svg>
