<svg width="138" height="60" viewBox="0 0 138 60" fill="none" xmlns="http://www.w3.org/2000/svg">
<g clip-path="url(#clip0_23_621)">
<path d="M69.731 49.801C69.5384 49.8112 69.3831 49.8395 69.2662 49.8844C69.1494 49.9294 69.0415 50.0051 68.9439 50.1091C68.8695 50.1849 68.813 50.2696 68.7757 50.3608C68.7385 50.4533 68.7128 50.5688 68.7 50.7101C68.6756 50.8975 68.664 51.121 68.664 51.3765V55.3724C68.664 55.7447 68.6845 56.0208 68.7244 56.2018C68.7654 56.3829 68.8373 56.5267 68.9426 56.6358C69.1288 56.8272 69.3908 56.9325 69.7297 56.9504V57.075H66.4837V56.9504C66.6802 56.9402 66.8381 56.9093 66.9588 56.8606C67.0795 56.8118 67.1861 56.7373 67.2811 56.6358C67.3864 56.5203 67.4583 56.3726 67.4968 56.1941C67.5353 56.0157 67.5559 55.7409 67.5559 55.3724V50.5252L64.9403 57.075H64.8338L62.2323 50.6228V55.3724C62.2323 55.7447 62.2516 56.0195 62.2914 56.1967C62.3299 56.3739 62.4018 56.5203 62.5071 56.6358C62.6021 56.7411 62.71 56.8169 62.8294 56.8631C62.9488 56.9093 63.1067 56.9389 63.2993 56.9492V57.0737H60.9573V56.9492C61.1499 56.9389 61.3065 56.9093 61.4272 56.8631C61.5479 56.8169 61.6545 56.7399 61.7495 56.6358C61.8548 56.5203 61.9267 56.3726 61.9652 56.1941C62.0038 56.0157 62.0243 55.7409 62.0243 55.3724V51.3765C62.0243 51.2108 62.0192 51.0529 62.0089 50.9052C61.9922 50.6382 61.9524 50.443 61.8921 50.3197C61.8073 50.1502 61.6917 50.0244 61.5441 49.9435C61.3964 49.8626 61.2012 49.8138 60.9573 49.7997V49.6751H63.162L65.3615 55.4712L67.6419 49.6751H69.7297V49.7997L69.731 49.801Z" fill="#EE2150"/>
<path d="M77.3055 57.0776H73.9683V56.953C74.2701 56.9248 74.4794 56.8695 74.5988 56.7899C74.8081 56.6487 74.9134 56.4535 74.9134 56.2044C74.9134 56.0568 74.8659 55.8577 74.7708 55.6073L74.6848 55.3801L74.1969 54.0999H71.9614L71.6969 54.8485L71.5698 55.1849C71.417 55.5829 71.3412 55.895 71.3412 56.1235C71.3412 56.2571 71.3695 56.3816 71.4247 56.4972C71.4799 56.6127 71.5556 56.7065 71.6507 56.7797C71.7829 56.8772 71.9524 56.935 72.1591 56.953V57.0776H69.8838V56.953C70.0636 56.9427 70.2202 56.8952 70.3564 56.8118C70.4912 56.7283 70.6234 56.5948 70.7531 56.4111C70.861 56.2635 70.9676 56.0722 71.0703 55.8385C71.173 55.6048 71.3104 55.2555 71.4786 54.7894L73.3379 49.6764H73.6268L75.8366 55.3749C76.0022 55.8051 76.1345 56.112 76.2321 56.2969C76.3296 56.4818 76.4375 56.6204 76.5518 56.7142C76.6327 56.7797 76.7264 56.8285 76.8317 56.8631C76.937 56.8978 77.0936 56.9273 77.3042 56.953V57.0776H77.3055ZM74.116 53.8778L73.049 51.0683L72.0436 53.8778H74.116Z" fill="#EE2150"/>
<path d="M80.1907 49.8433C79.9776 49.8433 79.749 49.8511 79.505 49.8652C78.9837 49.8947 78.5947 49.964 78.3392 50.077C78.0836 50.1888 77.8731 50.3826 77.7061 50.6574C77.5533 50.9104 77.4365 51.2545 77.3556 51.6872L77.2387 51.6769L77.3299 49.6764H84.2033L84.2945 51.6769L84.1776 51.6872C84.0865 51.1852 83.9426 50.8038 83.7488 50.5457C83.5549 50.2876 83.2698 50.1014 82.8974 49.9897C82.5829 49.8921 82.0487 49.8433 81.2976 49.8433V55.3737C81.2976 55.7422 81.3168 56.0157 81.3566 56.1954C81.3951 56.3739 81.467 56.5216 81.5723 56.6371C81.6673 56.7424 81.7752 56.8182 81.8946 56.8644C82.014 56.9106 82.172 56.9402 82.3646 56.9504V57.075H79.1186V56.9504C79.315 56.9402 79.4729 56.9106 79.5936 56.8644C79.7143 56.8169 79.8209 56.7411 79.9159 56.6371C80.0212 56.5216 80.0931 56.3752 80.1317 56.198C80.1702 56.0208 80.1907 55.746 80.1907 55.3737V49.8433Z" fill="#EE2150"/>
<path d="M86.7688 53.4553V55.3749C86.7688 55.7435 86.788 56.017 86.8278 56.1967C86.8664 56.3752 86.9383 56.5229 87.0436 56.6384C87.1347 56.7399 87.2413 56.8143 87.3607 56.8631C87.4814 56.9119 87.6394 56.9414 87.8358 56.953V57.0776H84.5898V56.953C84.7862 56.9427 84.9442 56.9119 85.0649 56.8631C85.1856 56.8143 85.2909 56.7399 85.382 56.6384C85.4899 56.5229 85.5631 56.3765 85.6003 56.1993C85.6376 56.0221 85.6555 55.7473 85.6555 55.3749V51.379C85.6555 51.0067 85.6376 50.7319 85.6003 50.5547C85.5631 50.3775 85.4899 50.2311 85.382 50.1156C85.2909 50.0103 85.1843 49.9345 85.0623 49.8883C84.9403 49.8408 84.7824 49.8125 84.5898 49.801V49.6764H87.0384C87.448 49.6764 87.7177 49.6777 87.8461 49.6816C88.3712 49.7072 88.7821 49.783 89.08 49.9088C89.4152 50.0539 89.6745 50.2696 89.8594 50.5573C90.0443 50.8449 90.1368 51.1787 90.1368 51.5575C90.1368 52.1212 89.9365 52.5732 89.5371 52.9135C89.4152 53.0149 89.2803 53.0984 89.1327 53.1626C88.985 53.228 88.7886 53.2897 88.5407 53.3475C88.7436 53.4373 88.8938 53.5324 88.9927 53.6299C89.071 53.7057 89.1417 53.8007 89.2059 53.915C89.2701 54.0293 89.3664 54.2309 89.4961 54.5198C89.7978 55.181 90.0251 55.6651 90.1792 55.9707C90.3332 56.2763 90.4629 56.4972 90.5682 56.6346C90.653 56.7463 90.7351 56.8246 90.8148 56.8683C90.8944 56.9119 91.0035 56.9402 91.1422 56.9543V57.0788H89.4562C89.3715 56.8798 89.3176 56.754 89.2932 56.6988L88.9375 55.8372C88.7244 55.3197 88.5086 54.8626 88.2929 54.4658C88.0759 54.0716 87.8782 53.802 87.6984 53.6582C87.6072 53.5863 87.5084 53.5349 87.4044 53.5041C87.2991 53.4733 87.1707 53.4579 87.0179 53.4579H86.7688V53.4553ZM86.7688 53.3359H86.9614C87.3813 53.3359 87.6817 53.3102 87.8628 53.2601C88.0438 53.2101 88.2146 53.1048 88.3738 52.9456C88.7295 52.5835 88.9067 52.1353 88.9067 51.6012C88.9067 51.3161 88.8553 51.0478 88.7513 50.7961C88.6486 50.5444 88.5048 50.3377 88.3224 50.1759C88.1799 50.0526 88.0104 49.9666 87.814 49.9178C87.6175 49.869 87.3376 49.8446 86.9755 49.8446H86.7675V53.3372L86.7688 53.3359Z" fill="#EE2150"/>
<path d="M94.5718 49.6751V49.7997C94.3792 49.81 94.2226 49.8395 94.1019 49.887C93.9812 49.9345 93.8746 50.0103 93.7796 50.1143C93.6473 50.2594 93.5664 50.4597 93.5356 50.7165C93.5151 50.9078 93.5048 51.1287 93.5048 51.3778V55.3737C93.5048 55.6741 93.5189 55.9104 93.5459 56.0837C93.5728 56.2571 93.6165 56.3957 93.6781 56.501C93.7667 56.6461 93.8797 56.7527 94.0184 56.8233C94.1571 56.8939 94.342 56.9363 94.5718 56.9504V57.075H91.3258V56.9504C91.5222 56.9402 91.6802 56.9093 91.8009 56.8606C91.9216 56.8118 92.0269 56.7373 92.118 56.6358C92.2259 56.5203 92.2991 56.3739 92.3363 56.1967C92.3736 56.0195 92.3915 55.7447 92.3915 55.3724V51.3765C92.3915 51.0041 92.3736 50.7293 92.3363 50.5521C92.2991 50.3749 92.2259 50.2286 92.118 50.113C92.0269 50.0077 91.9203 49.9319 91.7983 49.8857C91.6763 49.8382 91.5184 49.81 91.3258 49.7984V49.6739H94.5718V49.6751Z" fill="#EE2150"/>
<path d="M103.842 49.801C103.65 49.8112 103.495 49.8395 103.378 49.8844C103.261 49.9294 103.153 50.0051 103.055 50.1091C102.981 50.1849 102.924 50.2696 102.887 50.3608C102.85 50.4533 102.824 50.5688 102.811 50.7101C102.787 50.8975 102.775 51.121 102.775 51.3765V55.3724C102.775 55.7447 102.796 56.0208 102.836 56.2018C102.877 56.3829 102.949 56.5267 103.054 56.6358C103.24 56.8272 103.502 56.9325 103.841 56.9504V57.075H100.595V56.9504C100.792 56.9402 100.95 56.9093 101.07 56.8606C101.191 56.8118 101.298 56.7373 101.393 56.6358C101.498 56.5203 101.57 56.3726 101.608 56.1941C101.647 56.0157 101.667 55.7409 101.667 55.3724V50.5252L99.0518 57.075H98.9452L96.3438 50.6228V55.3724C96.3438 55.7447 96.363 56.0195 96.4028 56.1967C96.4414 56.3739 96.5133 56.5203 96.6186 56.6358C96.7136 56.7411 96.8214 56.8169 96.9408 56.8631C97.0603 56.9093 97.2182 56.9389 97.4108 56.9492V57.0737H95.0687V56.9492C95.2613 56.9389 95.418 56.9093 95.5387 56.8631C95.6594 56.8169 95.766 56.7399 95.861 56.6358C95.9663 56.5203 96.0382 56.3726 96.0767 56.1941C96.1152 56.0157 96.1358 55.7409 96.1358 55.3724V51.3765C96.1358 51.2108 96.1306 51.0529 96.1204 50.9052C96.1037 50.6382 96.0639 50.443 96.0035 50.3197C95.9188 50.1502 95.8032 50.0244 95.6555 49.9435C95.5079 49.8626 95.3127 49.8138 95.0687 49.7997V49.6751H97.2734L99.473 55.4712L101.753 49.6751H103.841V49.7997L103.842 49.801Z" fill="#EE2150"/>
<path d="M104.585 53.4258C104.585 52.8184 104.707 52.2548 104.951 51.736C105.195 51.2173 105.55 50.764 106.018 50.3762C106.367 50.0912 106.742 49.8703 107.145 49.7175C107.548 49.5634 107.954 49.4864 108.364 49.4864C108.885 49.4864 109.389 49.6084 109.877 49.8523C110.365 50.0963 110.792 50.4404 111.158 50.886C111.753 51.6089 112.051 52.4319 112.051 53.3552C112.051 53.8187 111.973 54.2655 111.818 54.6957C111.662 55.1258 111.435 55.5187 111.137 55.8731C110.771 56.3148 110.338 56.6564 109.839 56.8991C109.339 57.1418 108.817 57.2625 108.271 57.2625C107.725 57.2625 107.218 57.1443 106.726 56.9093C106.235 56.6744 105.812 56.3418 105.457 55.9104C105.175 55.574 104.96 55.1913 104.809 54.7625C104.659 54.3336 104.583 53.888 104.583 53.4245L104.585 53.4258ZM105.813 53.5067C105.813 54.5557 106.081 55.4404 106.616 56.1608C106.856 56.4831 107.112 56.7167 107.38 56.8631C107.65 57.0095 107.96 57.0827 108.312 57.0827C108.664 57.0827 108.98 57.0108 109.25 56.8657C109.519 56.7206 109.775 56.4856 110.019 56.1608C110.554 55.4379 110.821 54.5455 110.821 53.4861C110.821 52.9032 110.748 52.3523 110.6 51.8336C110.453 51.3148 110.246 50.8744 109.978 50.5123C109.761 50.2157 109.519 50 109.253 49.8639C108.988 49.7278 108.673 49.661 108.311 49.661C107.949 49.661 107.641 49.7278 107.379 49.8613C107.117 49.9949 106.873 50.2119 106.649 50.5123C106.382 50.8706 106.176 51.3097 106.029 51.831C105.884 52.3523 105.811 52.9109 105.811 53.508L105.813 53.5067Z" fill="#EE2150"/>
<path d="M114.058 50.6574V55.3749C114.058 55.7473 114.077 56.0221 114.117 56.1993C114.156 56.3765 114.228 56.5229 114.333 56.6384C114.428 56.7437 114.536 56.8195 114.655 56.8657C114.775 56.9119 114.933 56.9414 115.125 56.9517V57.0763H112.783V56.9517C112.976 56.9414 113.132 56.9119 113.253 56.8657C113.374 56.8195 113.48 56.7424 113.575 56.6384C113.681 56.5229 113.753 56.3752 113.791 56.1967C113.83 56.0182 113.85 55.7435 113.85 55.3749V51.3726C113.85 51.008 113.831 50.7357 113.791 50.556C113.753 50.3775 113.681 50.2298 113.575 50.1143C113.484 50.009 113.378 49.9332 113.258 49.887C113.138 49.8395 112.98 49.8112 112.783 49.7997V49.6751H114.739L118.863 55.2928V51.3778C118.863 51.0054 118.844 50.7306 118.804 50.5534C118.765 50.3762 118.694 50.2298 118.588 50.1143C118.493 50.009 118.385 49.9332 118.266 49.887C118.145 49.8395 117.989 49.8112 117.796 49.7997V49.6751H120.138V49.7997C119.799 49.7997 119.535 49.905 119.346 50.1143C119.241 50.2298 119.169 50.3775 119.13 50.556C119.092 50.7345 119.072 51.0067 119.072 51.3726V57.0776H118.844L114.058 50.6574Z" fill="#EE2150"/>
<path d="M122.298 57.0776V56.953C122.49 56.9427 122.648 56.9132 122.77 56.867C122.892 56.8208 123 56.7437 123.095 56.6397C123.2 56.5241 123.271 56.3778 123.308 56.2006C123.346 56.0234 123.365 55.7486 123.365 55.3762L123.37 54.3182C123.37 54.1667 123.342 53.9985 123.284 53.8136C123.22 53.6004 123.087 53.3333 122.887 53.011L121.571 50.9014L121.337 50.5213C121.165 50.2465 120.996 50.0591 120.829 49.9576C120.744 49.9037 120.659 49.8652 120.575 49.8433C120.49 49.8215 120.372 49.8074 120.219 49.7997V49.6751H123.53V49.7997C123.249 49.8177 123.069 49.8446 122.992 49.8806C122.802 49.9679 122.707 50.1246 122.707 50.3518C122.707 50.4353 122.728 50.529 122.77 50.6343C122.813 50.7396 122.881 50.8706 122.976 51.0298L124.352 53.3295L125.531 51.3662L125.663 51.1441C125.789 50.9348 125.851 50.728 125.851 50.5265C125.851 50.2953 125.781 50.1168 125.643 49.9897C125.504 49.8639 125.309 49.7997 125.058 49.7997V49.6751H127.395V49.7997C127.219 49.8215 127.083 49.8536 126.988 49.8947C126.893 49.9358 126.797 50.0039 126.699 50.0976C126.47 50.3287 126.213 50.6741 125.933 51.1338L124.775 53.0213C124.636 53.246 124.551 53.4104 124.52 53.5144C124.49 53.6197 124.474 53.7969 124.474 54.046V55.3749C124.474 55.7614 124.492 56.0388 124.528 56.207C124.564 56.3752 124.636 56.519 124.744 56.6384C124.93 56.8477 125.196 56.953 125.541 56.953V57.0776H122.295H122.298Z" fill="#EE2150"/>
<path d="M62.7806 23.9497C62.7806 22.9058 62.0346 22.6489 61.643 22.6489V22.4525H68.9195C76.4195 22.4525 76.7367 34.3143 69.9455 35.4186C74.871 37.0544 74.3484 45.5663 81.2706 45.5663C83.8823 45.5663 85.4308 44.1281 86.476 42.6104H86.5877C85.8597 43.951 84.2367 45.9399 80.1137 45.9399C71.0459 45.9399 71.6802 38.4913 66.8471 35.4969H65.4848V41.2506C65.4848 42.2753 66.2308 42.5308 66.6224 42.5308V42.7286H61.6404V42.5308C62.032 42.5308 62.778 42.2753 62.778 41.2506V23.951L62.7806 23.9497ZM65.486 35.1412H67.4455C73.0053 35.1412 73.379 22.8261 67.8191 22.8261H65.4873V35.1412H65.486Z" fill="#DBA128"/>
<path d="M91.0292 33.2691C91.0292 37.7221 87.9321 40.678 83.7706 40.678C79.6091 40.678 76.512 37.7221 76.512 33.2691C76.512 29.5249 78.9568 25.7024 83.7706 25.7024C88.5844 25.7024 91.0292 29.5249 91.0292 33.2691ZM88.1555 32.8942C88.1555 29.3862 86.7559 25.9784 83.7706 25.9784C80.7852 25.9784 79.3856 29.3875 79.3856 32.8942C79.3856 35.5932 80.4116 40.4019 83.7706 40.4019C87.1296 40.4019 88.1555 35.5945 88.1555 32.8942Z" fill="#DBA128"/>
<path d="M98.9593 32.2637L101.068 27.7324C101.497 26.8066 100.639 26.4908 100.247 26.4908V26.2943H102.822V26.4908C102.43 26.4908 101.796 26.8066 101.367 27.7324L98.9414 32.934V38.6479C98.9414 39.2591 99.1468 39.6726 99.5384 39.8896V40.086H95.6581V39.8896C96.0497 39.6726 96.2359 39.2591 96.2359 38.6479V32.934L93.7539 27.7324C93.2878 26.7476 92.5418 26.4908 92.1489 26.4908V26.2943H97.448V26.4908C97.0564 26.4908 96.3284 26.7476 96.7945 27.7324L98.9593 32.2637Z" fill="#DBA128"/>
<path d="M103.569 40.0873V39.8909C103.961 39.8909 104.651 39.6148 105.006 38.6492L109.446 26.2943H109.726V26.3136L114.148 38.6479C114.502 39.6135 115.193 39.8896 115.585 39.8896V40.086H110.417V39.8896C110.808 39.8896 111.611 39.6135 111.256 38.6479L110.1 35.4366H106.443L105.286 38.6479C104.931 39.6135 105.734 39.8896 106.125 39.8896V40.086H103.569V40.0873ZM106.535 35.1618H110.006L108.271 30.3338L106.536 35.1618H106.535Z" fill="#DBA128"/>
<path d="M120.548 39.8112H124.522C126.331 39.8112 126.556 37.9789 126.556 37.5655H126.742V40.0873H116.703V39.8909C117.095 39.8909 117.841 39.6546 117.841 38.6492V27.7324C117.841 26.727 117.095 26.4908 116.703 26.4908V26.2943H121.685V26.4908C121.294 26.4908 120.548 26.727 120.548 27.7324V39.8112Z" fill="#DBA128"/>
<path d="M127.076 43.5452H89.107V44.1808H127.076V43.5452Z" fill="#DA1C5C"/>
<path d="M40.9913 7H10.9265C5.42132 7 0.959419 11.4619 0.959419 16.967V47.033C0.959419 52.537 5.42132 57 10.9265 57H34.4504C34.0673 54.4213 33.5666 51.8672 32.8604 49.3602C32.8572 49.3602 32.854 49.3613 32.8507 49.3623C31.7444 44.8288 29.3058 41.0174 26.0777 37.6694C23.8574 35.3668 21.3707 33.3787 18.593 31.7716C18.3244 31.6164 18.0955 31.3928 17.9071 31.0236C18.3833 31.1146 18.8594 31.2066 19.3367 31.2943C22.9565 31.9577 26.3398 31.5618 29.2727 29.0966C32.4752 26.4044 33.1568 21.3936 30.761 18.0659C28.1235 14.4033 23.3727 13.4029 19.6063 15.6007C16.942 17.1554 15.3723 19.5746 14.2082 22.2561C11.1554 29.2859 10.2673 36.7931 9.5804 44.3323C9.57505 44.3922 9.60715 44.4543 9.6553 44.6608C12.1077 44.9454 14.6062 45.2782 17.1143 45.5178C21.39 45.9255 25.67 46.0079 29.9478 45.4879C30.1565 45.4622 30.5246 45.5574 30.5845 45.6965C31.0403 46.7665 31.4373 47.8611 31.8942 49.0585C22.873 50.4655 14.1964 49.1644 5.42453 47.8964C6.08472 39.6639 6.48169 31.458 9.2487 23.6246C10.6322 19.7062 12.6106 16.1538 15.8902 13.4949C21.4638 8.97629 28.9506 9.78735 33.4949 15.3449C36.7691 19.3499 36.4727 25.4307 32.9364 29.1543C31.2607 30.9188 29.2352 31.9321 26.8288 32.5623C29.7617 36.3126 32.4067 40.1283 33.9561 44.5677C37.5502 44.0134 41.216 41.1972 42.1758 37.6137C43.0971 34.1758 41.3102 30.5421 39.381 29.1982C38.1472 30.5774 36.9135 31.9363 35.7098 33.3209C35.6916 33.3423 35.6788 33.3691 35.6627 33.3937C35.6723 33.4782 35.6777 33.5638 35.6777 33.6505C35.6777 34.9088 34.658 35.9285 33.3997 35.9285C33.206 35.9285 33.0187 35.9018 32.839 35.8557C31.7091 35.6353 30.9825 34.6402 31.1163 33.4889C31.1259 33.4065 31.1409 33.3273 31.158 33.2492C31.3474 32.1824 32.2772 31.3714 33.3997 31.3714C33.6126 31.3714 33.818 31.4024 34.0138 31.457C34.3081 31.3714 34.5916 31.228 34.7778 31.0386C36.6171 29.1661 38.0402 27.0261 38.6662 24.4346C41.7157 24.6999 45.5452 29.5898 46.1562 33.9939C46.642 37.4961 45.6415 40.5969 43.4427 43.2912C41.3851 45.8121 38.6459 47.2919 35.5439 48.2153C36.1464 51.1332 36.4171 54.0629 36.4213 57H40.9902C46.4943 57 50.9573 52.5381 50.9573 47.033V16.967C50.9573 11.463 46.4954 7 40.9902 7H40.9913ZM34.8752 14.4761C34.8752 12.3521 36.5979 10.6294 38.7218 10.6294C40.8458 10.6294 42.5685 12.3521 42.5685 14.4761C42.5685 16.6 40.8458 18.3227 38.7218 18.3227C36.5979 18.3227 34.8752 16.6 34.8752 14.4761ZM43.6246 25.5634C42.042 25.5634 40.758 24.2805 40.758 22.6969C40.758 21.1133 42.041 19.8304 43.6246 19.8304C45.2082 19.8304 46.4911 21.1133 46.4911 22.6969C46.4911 24.2805 45.2082 25.5634 43.6246 25.5634Z" fill="#EE2150"/>
</g>
<defs>
<clipPath id="clip0_23_621">
<rect width="136.081" height="60" fill="white" transform="translate(0.959419)"/>
</clipPath>
</defs>
</svg>
