<svg width="24" height="24" viewBox="0 0 24 24" fill="none" xmlns="http://www.w3.org/2000/svg">
<circle cx="12" cy="12" r="3" stroke="white" stroke-width="2"/>
<path d="M5.05814 5.56356C4.08046 6.61733 3.37053 7.86787 2.95716 9.20765L4.79364 10.2679C6.12698 11.0377 6.12698 12.9622 4.79365 13.732L2.95536 14.7934C3.16064 15.4559 3.44242 16.106 3.80385 16.732C4.16526 17.358 4.58738 17.9271 5.05849 18.4361L6.89681 17.3748C8.23014 16.605 9.89681 17.5672 9.89681 19.1068V21.2275C11.2638 21.5394 12.7017 21.5498 14.1032 21.23L14.1032 19.1069C14.1032 17.5673 15.7698 16.6051 17.1032 17.3749L18.9419 18.4364C19.9195 17.3826 20.6295 16.1321 21.0428 14.7923L19.2063 13.732C17.873 12.9622 17.873 11.0377 19.2063 10.2679L21.0446 9.20653C20.8393 8.54403 20.5576 7.89392 20.1962 7.26793C19.8347 6.64193 19.4126 6.07284 18.9415 5.5638L17.1032 6.62514C15.7698 7.39494 14.1032 6.43269 14.1032 4.89309V2.77249C12.7362 2.46059 11.2982 2.45014 9.89681 2.76995L9.89681 4.89306C9.89681 6.43266 8.23014 7.39491 6.89681 6.62511L5.05814 5.56356Z" stroke="white" stroke-width="2" stroke-linejoin="round"/>
</svg>
