<svg width="16" height="16" viewBox="0 0 16 16" fill="none" xmlns="http://www.w3.org/2000/svg">
<path d="M5.71433 4.66667V3.2C5.71433 2.88174 5.83473 2.57652 6.04906 2.35147C6.26339 2.12643 6.55408 2 6.85718 2H9.1429C9.446 2 9.73669 2.12643 9.95102 2.35147C10.1653 2.57652 10.2858 2.88174 10.2858 3.2V4.66667M12.6667 4.66667L12 12.8C12 13.1183 11.8796 13.4235 11.6653 13.6485C11.451 13.8736 11.1603 14 10.8572 14H5.1429C4.83979 14 4.5491 13.8736 4.33478 13.6485C4.12045 13.4235 4.00004 13.1183 4.00004 12.8L3.33337 4.66667H12.6667Z" stroke="#F41C00" stroke-width="1.5" stroke-linecap="round" stroke-linejoin="round"/>
<path d="M2.66663 4.66667H3.85181H13.3333" stroke="#F41C00" stroke-width="2" stroke-linecap="round" stroke-linejoin="round"/>
<path d="M6.66663 7.33333V10.6667" stroke="#F41C00" stroke-width="1.5" stroke-linecap="round" stroke-linejoin="round"/>
<path d="M9.33337 7.33333V10.6667" stroke="#F41C00" stroke-width="1.5" stroke-linecap="round" stroke-linejoin="round"/>
</svg>
