<svg width="50" height="50" viewBox="0 0 50 50" fill="none" xmlns="http://www.w3.org/2000/svg">
<rect width="50" height="50" rx="10" fill="#FA5A7D"/>
<path d="M25 4C13.4168 4 4 13.4168 4 25C4 36.5832 13.4168 46 25 46C36.5832 46 46 36.5832 46 25C46 13.4168 36.5832 4 25 4ZM38.6168 36.2295L34.0188 31.6317L34.0629 32.074C34.1955 33.2677 33.7092 34.4612 32.825 35.1686L36.2293 38.5729C33.0461 41.1813 29.0673 42.6403 24.9998 42.6403C15.2735 42.6403 7.35981 34.7266 7.35981 25.0003C7.35981 20.9329 8.81876 16.954 11.4272 13.7708L18.4566 20.8002C18.3681 20.358 18.324 19.9161 18.324 19.4738C18.324 18.457 18.5451 17.4844 18.987 16.6003L13.7706 11.4274C16.9538 8.77463 20.9327 7.36005 25.0001 7.36005C34.7264 7.36005 42.6401 15.2737 42.6401 25C42.6401 29.0674 41.2252 33.0463 38.6168 36.2295Z" fill="white"/>
<path d="M29.5096 19.4737C29.5096 21.9642 27.4906 23.9832 25 23.9832C22.5095 23.9832 20.4905 21.9642 20.4905 19.4737C20.4905 16.9831 22.5095 14.9641 25 14.9641C27.4906 14.9641 29.5096 16.9831 29.5096 19.4737Z" fill="white"/>
<path d="M28.758 25C27.6969 25.7515 26.3708 26.1494 24.9999 26.1494C23.585 26.1494 22.3031 25.7072 21.2419 25C19.827 25.7074 18.7662 27.0779 18.545 28.7581L18.1028 32.3835C18.0143 33.0465 18.4565 33.7099 19.1196 33.8424C20.9764 34.1961 22.9217 34.4173 24.9555 34.4173C26.9894 34.4173 28.9788 34.2405 30.7915 33.8424C31.4545 33.7098 31.8967 33.0468 31.8082 32.3835L31.366 28.7581C31.2778 27.078 30.2166 25.7074 28.758 25Z" fill="white"/>
</svg>
