<svg width="16" height="16" viewBox="0 0 16 16" fill="none" xmlns="http://www.w3.org/2000/svg">
<path d="M7.33333 3.33333H3.18519C2.87085 3.33333 2.5694 3.4582 2.34713 3.68046C2.12487 3.90273 2 4.20418 2 4.51851V12.8148C2 13.1291 2.12487 13.4306 2.34713 13.6529C2.5694 13.8751 2.87085 14 3.18519 14H11.4815C11.7958 14 12.0973 13.8751 12.3195 13.6529C12.5418 13.4306 12.6667 13.1291 12.6667 12.8148V8.66666" stroke="#4D4D4D" stroke-width="1.5" stroke-linecap="round" stroke-linejoin="round"/>
<path d="M11.7775 2.38132C12.0217 2.13717 12.3528 2 12.6981 2C13.0434 2 13.3746 2.13717 13.6187 2.38132C13.8629 2.62548 14 2.95663 14 3.30192C14 3.64721 13.8629 3.97835 13.6187 4.22251L7.78829 10.0529L5.33337 10.6667L5.9471 8.21175L11.7775 2.38132Z" stroke="#4D4D4D" stroke-width="1.5" stroke-linecap="round" stroke-linejoin="round"/>
</svg>
