<svg width="50" height="50" viewBox="0 0 50 50" fill="none" xmlns="http://www.w3.org/2000/svg">
<rect width="50" height="50" rx="10" fill="#BF83FF"/>
<path d="M25.0013 4C13.4034 4 4 13.4034 4 25.0013C4 35.4574 11.6412 44.1234 21.6422 45.7305C22.7356 45.9059 23.857 46 25.0013 46C26.1455 46 27.2644 45.9059 28.3604 45.7305C38.3613 44.1234 46.0025 35.4549 46.0025 25.0013C46.0025 13.4034 36.5991 4 25.0013 4Z" fill="white"/>
<path d="M24.8183 19.9692C26.7102 19.9692 28.4871 19.2336 29.822 17.8957C31.1599 16.5578 31.8955 14.7809 31.8955 12.8921C31.8955 11.0032 31.1599 9.22334 29.822 7.88844C28.484 6.5505 26.7072 5.81494 24.8183 5.81494C22.9295 5.81494 21.1496 6.5505 19.8147 7.88844C18.4768 9.22637 17.7412 11.0032 17.7412 12.8921C17.7412 14.7809 18.4768 16.5608 19.8147 17.8957C21.1526 19.2336 22.9295 19.9692 24.8183 19.9692Z" fill="#BF83FF"/>
<path d="M39.9474 23.8649C39.1422 22.5512 37.7437 21.7703 36.2029 21.7703H13.7971C12.2563 21.7703 10.8579 22.5543 10.0527 23.8649C9.24751 25.1787 9.18394 26.78 9.88318 28.1512L20.8167 49.6429C20.8803 49.652 20.9408 49.6671 21.0044 49.6762C22.306 49.885 23.6409 49.997 25.003 49.997C26.3652 49.997 27.6971 49.885 29.0017 49.6762C29.0653 49.6671 29.1258 49.652 29.1894 49.6429L40.1229 28.1512C40.8222 26.78 40.7586 25.1756 39.9534 23.8649H39.9474Z" fill="#BF83FF"/>
</svg>
