<svg width="40" height="40" viewBox="0 0 40 40" fill="none" xmlns="http://www.w3.org/2000/svg">
<rect width="40" height="40" rx="10" fill="#FFF3F5"/>
<path d="M17.9036 24.9612H18.9299C19.0416 24.9612 19.1307 24.8712 19.1307 24.7587V23.7013C20.2242 23.5213 21.139 22.644 21.2506 21.5191C21.3844 20.0342 20.2465 18.7968 18.7959 18.7968H18.0148C17.4123 18.7968 16.9214 18.2794 16.9883 17.6495C17.0329 17.1095 17.5239 16.727 18.0593 16.727H18.9743C19.3089 16.727 19.5991 16.9745 19.666 17.2895C19.6882 17.3794 19.7776 17.447 19.8668 17.447H20.9156C21.0272 17.447 21.1388 17.3571 21.1163 17.222C21.0047 16.1646 20.1569 15.3547 19.1081 15.2872V14.2522C19.1081 14.1397 19.0189 14.0498 18.9073 14.0498H17.8808C17.7692 14.0498 17.68 14.1397 17.68 14.2522L17.6803 15.2872C16.4083 15.4672 15.4266 16.6371 15.5605 17.9869C15.6943 19.2693 16.8325 20.2142 18.1265 20.2142H18.796C19.3986 20.2142 19.8895 20.7316 19.8226 21.3615C19.7779 21.9015 19.287 22.2839 18.7515 22.2839H17.8366C17.5019 22.2839 17.2118 22.0365 17.1449 21.7215C17.1226 21.6316 17.0333 21.5639 16.9441 21.5639H15.8953C15.7837 21.5639 15.6721 21.6539 15.6945 21.789C15.8061 22.8464 16.6539 23.6563 17.7027 23.7238V24.7587C17.6803 24.8712 17.7919 24.9612 17.9035 24.9612H17.9036Z" fill="#FA5A7D"/>
<path d="M18.4168 27.3006C14.1324 27.3006 10.6514 23.791 10.6514 19.4715C10.6514 15.1519 14.1324 11.6423 18.4168 11.6423C22.6789 11.6423 26.1823 15.1519 26.1823 19.4715C26.1823 20.0789 26.1153 20.6414 26.0037 21.2038C26.0929 21.1814 26.1823 21.1814 26.2715 21.1814C26.7624 21.1814 27.2087 21.2489 27.6549 21.3838C27.7888 20.7763 27.8335 20.124 27.8335 19.4714C27.8335 14.252 23.616 10 18.439 10C13.2174 10.0224 9 14.2745 9 19.4939C9 24.7134 13.2174 28.9654 18.4167 28.9654C19.6887 28.9654 20.8936 28.7179 22.0094 28.2454C21.7639 27.7729 21.5853 27.233 21.5184 26.648C20.5588 27.0755 19.5102 27.3005 18.4167 27.3005L18.4168 27.3006Z" fill="#FA5A7D"/>
<path d="M26.2491 22.0356C24.0623 22.0356 22.2771 23.813 22.2771 26.0177C22.2771 28.2225 24.0399 29.9998 26.2268 29.9998C28.4136 29.9998 30.1765 28.2226 30.1765 26.0177C30.1988 23.813 28.436 22.0356 26.2491 22.0356ZM27.7888 27.0076C27.9451 27.1651 27.9451 27.4125 27.7888 27.57C27.7219 27.6375 27.6103 27.6825 27.5211 27.6825C27.4319 27.6825 27.3203 27.6375 27.2534 27.57L26.2715 26.5801L25.2896 27.57C25.2227 27.6375 25.1111 27.6825 25.0219 27.6825C24.9327 27.6825 24.8211 27.6375 24.7542 27.57C24.5979 27.4125 24.5979 27.1652 24.7542 27.0076L25.736 26.0177L24.7542 25.0277C24.5979 24.8702 24.5979 24.6229 24.7542 24.4653C24.9104 24.3077 25.1557 24.3077 25.312 24.4653L26.2939 25.4552L27.2758 24.4653C27.4321 24.3077 27.6774 24.3077 27.8336 24.4653C27.9899 24.6229 27.9899 24.8702 27.8336 25.0277L26.8518 26.0177L27.7888 27.0076Z" fill="#FA5A7D"/>
</svg>
