<svg width="16" height="12" viewBox="0 0 16 12" fill="none" xmlns="http://www.w3.org/2000/svg">
<path d="M4.07479 11.1021H11.9252C12.2589 11.1021 12.5825 10.9876 12.842 10.7779C13.1015 10.5681 13.2812 10.2756 13.3512 9.94933L14.7386 3.47482C14.7783 3.2894 14.7592 3.09621 14.6839 2.92215C14.6087 2.7481 14.481 2.60184 14.3187 2.50377C14.1564 2.40569 13.9676 2.36068 13.7785 2.37499C13.5894 2.38931 13.4095 2.46225 13.2638 2.58364L11.54 4.02013C11.4614 4.08563 11.3699 4.13385 11.2715 4.16167C11.173 4.18949 11.0698 4.19627 10.9685 4.18159C10.8673 4.16691 10.7703 4.13108 10.6838 4.07644C10.5973 4.0218 10.5232 3.94957 10.4665 3.86444L8.6067 1.0747C8.54011 0.974817 8.44989 0.892921 8.34406 0.836279C8.23822 0.779637 8.12004 0.75 8 0.75C7.87996 0.75 7.76177 0.779637 7.65594 0.836279C7.5501 0.892921 7.45989 0.974817 7.3933 1.0747L5.53347 3.86444C5.47672 3.94956 5.40269 4.02179 5.3162 4.07643C5.2297 4.13106 5.13268 4.16689 5.03144 4.18157C4.93019 4.19626 4.82699 4.18947 4.72854 4.16166C4.63009 4.13384 4.53859 4.08562 4.46 4.02013L2.73617 2.58363C2.59049 2.46223 2.41058 2.3893 2.22149 2.37498C2.0324 2.36066 1.84356 2.40568 1.68126 2.50375C1.51897 2.60183 1.3913 2.74808 1.31605 2.92214C1.2408 3.0962 1.22171 3.28939 1.26144 3.47481L2.64884 9.94932C2.71876 10.2756 2.89847 10.5681 3.15798 10.7778C3.41748 10.9876 3.74109 11.1021 4.07479 11.1021Z" fill="#ED1F50"/>
<path d="M8 9C8.82843 9 9.5 8.32843 9.5 7.5C9.5 6.67157 8.82843 6 8 6C7.17157 6 6.5 6.67157 6.5 7.5C6.5 8.32843 7.17157 9 8 9Z" fill="white"/>
<path d="M12.0374 12H3.96245C3.44822 11.9978 2.95009 11.8205 2.55018 11.4972C2.15028 11.174 1.87248 10.724 1.76262 10.2217L0.449022 4.0935C0.367093 3.71197 0.406233 3.31439 0.560987 2.95617C0.715741 2.59794 0.978399 2.29692 1.31235 2.09506C1.64631 1.8932 2.03492 1.80055 2.42403 1.83003C2.81313 1.85951 3.18335 2.00965 3.48308 2.25952L4.83879 3.38891L6.43987 0.988034C6.61108 0.731194 6.84305 0.520599 7.1152 0.374943C7.38735 0.229287 7.69125 0.153076 7.99993 0.153076C8.3086 0.153076 8.6125 0.229287 8.88465 0.374943C9.1568 0.520599 9.38877 0.731194 9.55999 0.988034L11.1611 3.38965L12.5168 2.25952C12.8165 2.00965 13.1867 1.85951 13.5758 1.83003C13.9649 1.80055 14.3535 1.8932 14.6875 2.09506C15.0215 2.29692 15.2841 2.59794 15.4389 2.95617C15.5936 3.31439 15.6328 3.71197 15.5508 4.0935L14.2376 10.2217C14.1276 10.724 13.8497 11.1739 13.4498 11.4972C13.0498 11.8204 12.5517 11.9978 12.0374 12ZM2.28777 3.3208C2.21741 3.3221 2.14866 3.34207 2.08854 3.37866C2.02001 3.41728 1.96604 3.4773 1.93488 3.54953C1.90372 3.62176 1.89711 3.70222 1.91604 3.77857L3.2293 9.90673C3.26587 10.0742 3.35842 10.2243 3.49169 10.3321C3.62497 10.44 3.79101 10.4992 3.96245 10.5H12.0374C12.2089 10.4991 12.3749 10.4399 12.5082 10.3321C12.6416 10.2242 12.7342 10.0742 12.7709 9.90675L14.0838 3.77858C14.1003 3.70225 14.0925 3.62266 14.0616 3.55095C14.0307 3.47924 13.9781 3.41899 13.9112 3.37863C13.8444 3.33828 13.7665 3.31984 13.6887 3.32588C13.6108 3.33193 13.5368 3.36217 13.4769 3.41236L12.1212 4.54176C11.9603 4.67756 11.7722 4.7774 11.5695 4.83463C11.3668 4.89185 11.1543 4.90512 10.9461 4.87355C10.7378 4.84341 10.5382 4.7698 10.3602 4.6575C10.1822 4.5452 10.0299 4.39672 9.91299 4.2217L8.31193 1.82007C8.27768 1.76871 8.23128 1.7266 8.17686 1.69747C8.12243 1.66835 8.06166 1.65311 7.99993 1.65311C7.9382 1.65311 7.87742 1.66835 7.82299 1.69747C7.76857 1.7266 7.72217 1.76871 7.68792 1.82007L6.08684 4.22168C5.96998 4.39672 5.81761 4.54522 5.63961 4.65752C5.46162 4.76983 5.26199 4.84343 5.05369 4.87355C4.8454 4.90366 4.63309 4.88962 4.43058 4.83233C4.22807 4.77504 4.03987 4.67579 3.87822 4.54102L2.52288 3.41235C2.45807 3.35455 2.3746 3.32204 2.28777 3.3208Z" fill="#ED1F50"/>
</svg>
