<svg width="16" height="16" viewBox="0 0 16 16" fill="none" xmlns="http://www.w3.org/2000/svg">
<path d="M5.33337 6V4.66667C5.33337 3.19391 6.52728 2 8.00004 2C9.4728 2 10.6667 3.19391 10.6667 4.66667V6M5.46671 14H10.5334C11.2801 14 11.6535 14 11.9387 13.8547C12.1896 13.7268 12.3936 13.5229 12.5214 13.272C12.6667 12.9868 12.6667 12.6134 12.6667 11.8667V8.13333C12.6667 7.3866 12.6667 7.01323 12.5214 6.72801C12.3936 6.47713 12.1896 6.27316 11.9387 6.14532C11.6535 6 11.2801 6 10.5334 6H5.46671C4.71997 6 4.3466 6 4.06139 6.14532C3.8105 6.27316 3.60653 6.47713 3.4787 6.72801C3.33337 7.01323 3.33337 7.3866 3.33337 8.13333V11.8667C3.33337 12.6134 3.33337 12.9868 3.4787 13.272C3.60653 13.5229 3.8105 13.7268 4.06139 13.8547C4.3466 14 4.71997 14 5.46671 14Z" stroke="#4D4D4D" stroke-width="1.5" stroke-linecap="round"/>
</svg>
