<svg width="50" height="50" viewBox="0 0 50 50" fill="none" xmlns="http://www.w3.org/2000/svg">
<g clip-path="url(#clip0_1124_3036)">
<rect width="50" height="50" rx="10" fill="#FF957B"/>
<path d="M39.5477 39.8492C47.7487 31.6482 47.7487 18.3518 39.5477 10.1508C31.3467 1.94975 18.0503 1.94975 9.84924 10.1508C1.64823 18.3518 1.64823 31.6482 9.84924 39.8492C18.0503 48.0503 31.3467 48.0503 39.5477 39.8492Z" fill="white"/>
<path d="M25 21C23.503 21 22.2049 21.8252 21.5249 23.2108L12 42.6314C15.6552 45.3774 20.1435 47 25 47C29.8565 47 34.3475 45.3774 38 42.6314L28.4751 23.2108C27.7951 21.8252 26.497 21 25 21Z" fill="#FF957B"/>
<path d="M25 6.96313C23.4636 6.96313 21.9299 7.54792 20.7579 8.72013C18.414 11.0645 18.414 14.8617 20.7579 17.2061C21.9299 18.3783 23.4636 18.9631 25 18.9631C26.5364 18.9631 28.0701 18.3783 29.2421 17.2061C31.586 14.8617 31.586 11.0645 29.2421 8.72013C28.0701 7.54792 26.5364 6.96313 25 6.96313Z" fill="#FF957B"/>
</g>
<defs>
<clipPath id="clip0_1124_3036">
<rect width="50" height="50" rx="10" fill="white"/>
</clipPath>
</defs>
</svg>
