<svg width="40" height="40" viewBox="0 0 40 40" fill="none" xmlns="http://www.w3.org/2000/svg">
<rect width="40" height="40" rx="10" fill="#FDF0DC"/>
<path d="M30.7388 13.0001H9.76074C9.34093 13.0001 9 13.3409 9 13.7615V27.2389C9 27.6588 9.34057 28 9.76074 28H30.7393C31.1591 28 31.5 27.6592 31.5 27.2389V13.7611C31.4997 13.3408 31.1591 13 30.7389 13L30.7388 13.0001ZM29.9783 16.3577C29.097 16.0986 28.402 15.4031 28.1429 14.522H29.9783V16.3577ZM26.5806 26.4781H13.9192C13.6047 24.7553 12.2442 23.3944 10.5217 23.0801V17.9205C12.2442 17.6059 13.6049 16.2449 13.9192 14.5224H26.581C26.8956 16.2449 28.2561 17.606 29.9785 17.9205V23.0806C28.2559 23.3948 26.8952 24.7556 26.5808 26.4783L26.5806 26.4781ZM12.3567 14.5222C12.0981 15.4034 11.4026 16.0987 10.5215 16.3578V14.5222H12.3567ZM10.5215 24.643C11.4026 24.9016 12.0981 25.5966 12.3567 26.4782H10.5215V24.643ZM28.1427 26.4782C28.4018 25.5964 29.0968 24.9016 29.978 24.643V26.4782H28.1427Z" fill="#FF9C00"/>
<path d="M20.2495 18.0921C20.6842 18.0921 21.0378 18.4069 21.0378 18.7935C21.0378 19.2137 21.3782 19.5545 21.7985 19.5545C22.2183 19.5545 22.5594 19.2139 22.5594 18.7935C22.5594 17.8243 21.9109 17.0003 21.0104 16.6966V16.1644C21.0104 15.7445 20.6697 15.4033 20.2497 15.4033C19.8293 15.4033 19.4884 15.7441 19.4884 16.1644V16.6966C18.5881 17.0001 17.9399 17.824 17.9399 18.7935C17.9399 20.2691 19.1375 20.8234 19.9299 21.1905C20.7881 21.5875 21.038 21.7691 21.038 22.206C21.038 22.5931 20.6844 22.9077 20.2497 22.9077C19.8149 22.9077 19.4612 22.5929 19.4612 22.206C19.4612 21.7857 19.1208 21.4449 18.7004 21.4449C18.2801 21.4449 17.9397 21.7856 17.9397 22.206C17.9397 23.1751 18.5877 23.9991 19.4882 24.303V24.8351C19.4882 25.2553 19.8288 25.5961 20.2494 25.5961C20.6691 25.5961 21.0102 25.2555 21.0102 24.8351V24.303C21.9105 23.9991 22.5592 23.1754 22.5592 22.206C22.5592 20.7306 21.3612 20.1761 20.5687 19.8089C19.7109 19.412 19.461 19.2304 19.461 18.7935C19.461 18.4069 19.8147 18.0921 20.2495 18.0921Z" fill="#FF9C00"/>
</svg>
