<svg width="54" height="54" viewBox="0 0 54 54" fill="none" xmlns="http://www.w3.org/2000/svg">
<path fill-rule="evenodd" clip-rule="evenodd" d="M4.5 27C4.5 32.321 6.34703 37.2105 9.4349 41.0625C13.5584 46.2065 19.8945 49.5 27 49.5C33.9899 49.5 40.2352 46.3127 44.3621 41.312C47.5717 37.4227 49.5 32.4364 49.5 27C49.5 14.5736 39.4263 4.5 27 4.5C14.5736 4.5 4.5 14.5736 4.5 27ZM27 32.625C21.9341 32.625 17.2592 34.2992 13.4984 37.1245C16.5771 41.2236 21.4789 43.875 27 43.875C32.521 43.875 37.4229 41.2236 40.5016 37.1245C36.7409 34.2992 32.0659 32.625 27 32.625ZM27 28.125C30.728 28.125 33.75 25.103 33.75 21.375C33.75 17.6471 30.728 14.625 27 14.625C23.272 14.625 20.25 17.6471 20.25 21.375C20.25 25.103 23.272 28.125 27 28.125Z" fill="#ED1F50"/>
<circle cx="42" cy="42" r="12" fill="white"/>
<path d="M36.6667 42H42.0001M42.0001 42H47.3334M42.0001 42V47.3333M42.0001 42V36.6666" stroke="#ED1F50" stroke-width="2" stroke-linecap="round" stroke-linejoin="round"/>
</svg>
